<svg xmlns="http://www.w3.org/2000/svg" viewBox="0 -1 125 30" width="125" height="31">
  <path fill-rule="evenodd" clip-rule="evenodd" fill="#010101" d="M93.3 27.3L91 24.7l2.1-2.4h-.8l-2.2 2.6v-2.6h-.6v5h.6v-1.7l.5-.6 1.9 2.2h.8v.1zm23.8-14h-3.2V1.7h3.2c3.7 0 5.7 2.6 5.7 5.8 0 3.2-2.1 5.8-5.7 5.8zm-50.7 1.6V1.7h4.7V0H59.8v1.7h4.7V15h1.9v-.1zm-60.7.3c4 0 5.5-2.2 5.5-4.4 0-5.6-8.8-3.6-8.8-7 0-1.4 1.3-2.4 3.1-2.4 1.6 0 3.2.6 4.3 1.8l1.1-1.4C9.6.5 7.9-.3 5.6-.3 2.7-.3.5 1.4.5 3.8c0 5.3 8.8 3.2 8.8 7 0 1.1-.8 2.6-3.5 2.6-2.1 0-3.7-1-4.7-2.1L0 12.8c1.2 1.4 3.1 2.4 5.7 2.4zm15.8 0c2.6 0 4.4-1.3 5.7-3l-1.6-.9c-.8 1.3-2.4 2.2-4.1 2.2-3.3 0-5.7-2.5-5.7-6.1 0-3.6 2.5-6.1 5.7-6.1 1.7 0 3.2.9 4.1 2.2l1.6-.9c-1.2-1.7-3-3-5.7-3-4.3 0-7.7 3.1-7.7 7.7.1 4.8 3.4 7.9 7.7 7.9zm18.7-.3v-1.7h-7.9V8.1h7.8V6.5h-7.8V1.7h7.9V0h-9.8v14.9h9.8zm16.5 0V0h-1.9v11.6L46.3 0h-1.9v14.9h1.9V3L55 14.9h1.7zm23.9-1.6H76V8.1h4.6c1.8 0 2.8 1.2 2.8 2.6 0 1.6-1.1 2.6-2.8 2.6zm-.1-6.8H76V1.7h4.5c1.7 0 2.6 1.1 2.6 2.4 0 1.3-.9 2.4-2.6 2.4zm.5 8.4c2.7 0 4.3-1.6 4.3-4 0-1.8-1.3-3.4-2.9-3.7A3.4 3.4 0 0 0 85 3.8C85 1.6 83.4 0 80.8 0h-6.6v14.9H81zm10.7 0V0h-1.9v14.9h1.9zM103 7.4h-3.9V1.7h3.9c1.8 0 3 1.2 3 2.8 0 1.7-1.3 2.9-3 2.9zm5 7.5l-4-6.1c2-.2 3.9-1.7 3.9-4.3 0-2.8-1.9-4.5-4.7-4.5h-6v14.9h1.9V9h3l3.8 5.9h2.1zm9.1 0c4.6 0 7.6-3.2 7.6-7.4s-3-7.5-7.6-7.5H112v14.9h5.1zm-14.8 8.7c.7 0 1.2.5 1.2 1.2s-.5 1.2-1.2 1.2-1.2-.5-1.2-1.2c0-.6.5-1.2 1.2-1.2zm-81 0c.7 0 1.2.5 1.2 1.2S22 26 21.3 26s-1.2-.5-1.2-1.2c0-.6.6-1.2 1.2-1.2zm14.2 3.7v-5h-.6v3.9L32 22.3h-.6v5h.6v-4l2.9 4h.6zm8.7 0v-.6h-2.6V25h2.6v-.6h-2.6v-1.6h2.6v-.6h-3.3v5h3.3v.1zm9.7 0l1.4-5h-.7l-1.1 4.1-1.1-4.1h-.5l-1.1 4.1-1.1-4.1H49l1.4 5h.6l1.1-4 1.1 4h.7zm10.5 0v-2.1l2-2.9h-.7L64 24.6l-1.5-2.3h-.7l2 2.9v2.1h.6zm8.8-.4c-1.1 0-1.8-.9-1.8-2 0-1.2.7-2 1.8-2s1.8.9 1.8 2-.7 2-1.8 2zm0 .5c1.5 0 2.5-1.1 2.5-2.6s-1-2.6-2.5-2.6-2.5 1.1-2.5 2.6 1 2.6 2.5 2.6zm9.6-2.6h-1.3v-1.9h1.3c.6 0 1 .4 1 .9-.1.6-.5 1-1 1zm1.6 2.5l-1.3-2c.7-.1 1.3-.6 1.3-1.4 0-.9-.6-1.5-1.6-1.5h-2v5h.6v-2h1l1.3 2h.7z" />
</svg>
